<?xml version="1.0" encoding="utf-8"?>
<!-- Designed by Vexels.com - 2016 All Rights Reserved - https://vexels.com/terms-and-conditions/  -->

<svg version="1.1" id="Layer_1" xmlns="http://www.w3.org/2000/svg" xmlns:xlink="http://www.w3.org/1999/xlink" x="0px" y="0px"
	 width="1200px" height="1200px" viewBox="0 0 1200 1200" enable-background="new 0 0 1200 1200" xml:space="preserve">
<g>
	<g>
		<g>
			<path fill="#231F20" d="M501.54,638.671c0,0-2.022-31.754,6.126-61.705c17.773-57.346,57.655-94.262,119.632-110.719
				c38.656-10.199,84.702-10.547,129.972,12.729c32.997,21.309,61.073,54.48,84.365,99.422l2.012-0.499
				c34.49-61.798,71.497-97.802,111.138-108.32l19.943-5.324c10.461-2.717,22.278-4.087,35.324-4.151
				c5.49-19.53,9.197-38.192,10.987-55.912c2.924-60.17-7.584-85.346-7.584-85.346c-23.563-87.163-87.693-141.471-192.251-162.802
				c-39.213-5.73-72.468-4.84-99.588,2.195l-28.291,7.561c-56.248,14.916-108.743,66.003-157.671,153.677l-2.853,0.691
				c-33.047-63.752-72.875-110.82-119.694-141.034c-64.22-33.024-129.542-32.524-184.375-18.062
				c-87.934,23.345-144.506,75.717-169.725,157.077c-11.558,42.484-8.692,87.537-8.692,87.537
				c1.602,21.578,5.005,42.987,10.567,64.124c37.486,141.469,194.832,334.227,472.379,578.52
				c47.762-41.993,92.567-83.288,134.602-123.936c-88.732-95.492-141.693-175.663-158.878-240.518
				C505.071,668.98,502.668,653.883,501.54,638.671z"/>
		</g>
		<path fill="#231F20" d="M841.955,1043.314C667.547,886.85,567.319,762.884,543.934,674.623c-3.186-12.114-5.317-25.03-6.327-38.35
			c-0.087-1.805-1.212-26.675,4.781-49.217c14.231-45.293,44.176-72.588,94.189-85.866c13.61-3.59,27.296-5.419,40.618-5.419
			c21.749,0,42.59,4.896,61.958,14.558c26.777,17.757,50.45,46.243,70.394,84.709l13.086,25.255l44.914-11.039l7.667-13.732
			c28.899-51.781,59.621-83.245,88.843-91.001l20.001-5.339c7.522-1.957,16.639-2.975,26.85-2.975c8.509,0,17.856,0.708,27.79,2.126
			c59.921,12.457,93.883,40.615,106.849,88.57l0.95,3.509l0.362,0.602c0.911,3.34,4.077,17.148,2.869,43.884
			c-4.299,40.124-25.029,89.676-61.624,147.324C1026.806,863.768,944.096,951.497,841.955,1043.314z"/>
	</g>
</g>
</svg>
